<svg xmlns="http://www.w3.org/2000/svg" viewBox="0 0 448 512"><!--!Font Awesome Free 6.5.1 by @fontawesome - https://fontawesome.com License - https://fontawesome.com/license/free Copyright 2024 Fonticons, Inc.--><path fill="#dc3545" d="M128 0c17.7 0 32 14.3 32 32V64H288V32c0-17.7 14.3-32 32-32s32 14.3 32 32V64h48c26.5 0 48 21.5 48 48v48H0V112C0 85.5 21.5 64 48 64H96V32c0-17.7 14.3-32 32-32zM0 192H448V464c0 26.5-21.5 48-48 48H48c-26.5 0-48-21.5-48-48V192zm325.2 78.4c-9.2-9.6-24.5-10.1-34.1-1l-66.8 63.3-31-30.8c-9.3-9.2-24.4-9.1-33.6 .3s-9.1 24.4 .3 33.6l48 47.7c9.3 9.3 24.4 9.1 33.5-.5l84.1-79.6c9.6-9.1 10.1-24.4 1-34.1z"/></svg>
